<?xml version="1.0" standalone="no"?>
<!DOCTYPE svg PUBLIC "-//W3C//DTD SVG 20010904//EN"
 "http://www.w3.org/TR/2001/REC-SVG-20010904/DTD/svg10.dtd">
<svg version="1.0" xmlns="http://www.w3.org/2000/svg"
 width="1280.000000pt" height="1280.000000pt" viewBox="0 0 1280.000000 1280.000000"
 preserveAspectRatio="xMidYMid meet">
<metadata>
Created by potrace 1.14, written by Peter Selinger 2001-2017
</metadata>
<g transform="translate(0.000000,1280.000000) scale(0.100000,-0.100000)"
fill="#000000" stroke="none">
<path d="M3550 8120 l0 -2460 2850 0 2850 0 0 480 0 480 -37 1 c-21 0 -327 1
-680 1 -354 0 -643 4 -643 7 0 3 306 312 680 686 l680 680 0 337 0 338 -22 1
c-29 1 -2928 1 -2948 0 -13 -1 -15 -61 -15 -481 l0 -480 670 0 670 0 -543
-543 -544 -544 -999 0 -999 0 -1 41 c0 54 0 2870 0 2919 l1 37 1880 0 c1497 0
1880 -3 1881 -12 0 -7 2 -107 4 -223 1 -115 3 -213 4 -216 1 -8 918 -10 944
-3 16 5 17 47 17 710 l0 704 -2850 0 -2850 0 0 -2460z"/>
<path d="M3547 4759 c-142 -33 -261 -146 -310 -294 -12 -39 -18 -612 -7 -688
24 -154 130 -278 285 -332 46 -16 112 -18 788 -19 l737 -1 1 25 c3 79 0 272
-3 276 -3 2 -309 4 -682 4 -746 1 -727 -1 -766 62 -19 31 -20 46 -18 317 l3
283 39 34 39 34 694 0 693 0 1 28 c1 48 1 246 0 265 -1 16 -40 17 -728 16
-401 -1 -745 -5 -766 -10z"/>
<path d="M5575 4756 c-145 -36 -258 -146 -301 -292 -13 -45 -15 -109 -12 -392
l3 -337 34 -70 c38 -76 105 -149 173 -187 92 -51 105 -52 668 -53 289 0 552 3
585 7 163 21 300 148 344 320 5 21 9 178 9 350 -1 344 -4 371 -61 466 -56 94
-151 164 -255 188 -79 19 -1113 18 -1187 0z m1116 -335 c38 -37 39 -41 40
-107 3 -285 -1 -483 -10 -505 -5 -15 -25 -37 -43 -50 l-33 -24 -468 -2 c-507
-3 -495 -4 -547 52 l-25 27 -1 274 c0 303 3 320 60 355 29 18 60 19 510 19
l478 0 39 -39z"/>
<path d="M7298 4758 c0 -7 -2 -309 -3 -670 -1 -455 2 -658 9 -661 6 -1 83 -3
171 -2 l160 0 3 518 2 517 549 0 c535 0 549 -1 574 -20 34 -27 46 -70 43 -160
-2 -82 -14 -111 -52 -136 -22 -15 -76 -17 -477 -18 l-452 -1 -3 -152 -3 -153
320 0 320 0 88 -107 c48 -60 95 -116 103 -127 8 -10 31 -37 50 -60 19 -23 45
-55 58 -70 l23 -29 210 -1 c116 -1 215 1 219 4 5 3 -68 99 -161 213 -93 114
-169 209 -169 211 0 2 17 15 38 28 81 55 161 160 180 235 4 16 7 100 7 188 0
159 0 160 -32 225 -54 111 -156 194 -276 226 -74 19 -1496 21 -1499 2z"/>
<path d="M9660 4756 c-156 -42 -282 -177 -308 -331 -4 -27 -7 -189 -6 -360 1
-293 2 -313 23 -364 51 -125 137 -209 259 -253 56 -21 75 -21 795 -22 650 -1
737 1 738 14 1 8 2 77 3 153 l1 137 -35 0 c-19 1 -328 1 -686 1 -727 0 -701
-2 -736 69 -16 31 -18 68 -18 298 0 279 2 294 50 337 22 19 40 20 723 25 l701
5 1 135 c0 74 -1 143 -4 153 -3 16 -44 17 -730 16 -535 0 -738 -4 -771 -13z"/>
<path d="M1639 4398 c-1 -4 -1 -281 0 -294 1 -7 112 -10 361 -10 198 1 360 -2
360 -6 0 -5 -4 -8 -10 -8 -18 0 -635 -312 -657 -332 -43 -40 -56 -84 -56 -201
0 -67 4 -111 10 -115 9 -5 1290 -8 1338 -3 6 1 10 58 10 151 l0 150 -80 0
c-44 0 -208 0 -364 0 -156 0 -282 2 -280 4 2 3 148 76 324 164 176 88 329 168
341 178 43 39 57 82 59 194 1 58 0 111 -3 118 -3 9 -148 12 -678 12 -371 0
-674 -1 -675 -2z"/>
<path d="M9872 4098 l3 -153 643 -1 c457 -1 642 2 643 10 4 35 5 273 1 284 -3
9 -142 12 -648 12 l-645 0 3 -152z"/>
<path d="M3438 2789 c-61 -16 -100 -50 -124 -108 -21 -51 -20 -311 2 -354 23
-45 44 -66 86 -88 34 -17 63 -19 358 -19 l320 0 -2 177 -3 178 -272 0 c-237 0
-273 -2 -274 -15 -2 -18 -1 -102 0 -112 1 -5 91 -8 201 -8 l200 0 0 -43 0 -44
-221 0 c-277 0 -259 -11 -259 155 0 103 2 121 18 136 17 14 52 16 316 16 l297
0 -3 68 -3 67 -307 0 c-169 0 -317 -2 -330 -6z"/>
<path d="M4646 2790 c-2 -3 -3 -131 -2 -285 l1 -280 75 0 74 0 0 218 0 217
175 1 c245 1 294 -1 308 -13 18 -15 16 -93 -2 -112 -12 -12 -45 -15 -168 -15
-83 0 -171 0 -194 -1 l-43 0 0 -65 0 -64 137 -3 137 -3 66 -82 65 -82 93 0
c50 -1 92 3 92 8 0 8 -69 97 -117 151 l-23 25 25 12 c13 7 36 34 51 59 22 37
26 57 26 115 0 86 -22 132 -81 174 l-42 29 -325 1 c-179 0 -327 -2 -328 -5z"/>
<path d="M6153 2784 c-19 -7 -46 -23 -60 -36 -49 -45 -57 -74 -59 -218 -3
-193 16 -249 101 -290 38 -18 62 -20 288 -20 265 0 297 5 338 52 46 55 52 78
54 218 1 152 -6 190 -42 239 -46 60 -70 65 -342 66 -165 0 -254 -3 -278 -11z
m497 -139 c9 -11 13 -54 13 -137 0 -165 15 -155 -242 -155 -249 0 -234 -10
-235 156 -1 86 3 122 13 134 12 15 40 17 226 17 178 0 215 -2 225 -15z"/>
<path d="M7382 2565 c3 -228 3 -232 28 -268 48 -72 73 -77 356 -77 288 0 311
6 361 81 l28 43 0 225 0 225 -72 1 c-60 2 -73 -1 -74 -14 -1 -9 -2 -99 -3
-201 -1 -122 -5 -192 -13 -205 -11 -19 -23 -20 -215 -21 -158 -1 -208 1 -225
12 -22 14 -23 19 -25 221 l-3 208 -73 0 -73 1 3 -231z"/>
<path d="M8732 2792 c-9 -3 -12 -82 -12 -288 l0 -284 75 0 75 0 0 220 0 220
239 0 c218 0 240 -2 247 -17 13 -31 12 -77 -2 -100 -13 -21 -19 -22 -204 -22
-104 0 -193 -2 -197 -4 -7 -4 -9 -85 -4 -120 0 -4 99 -7 219 -5 214 3 219 4
255 28 50 35 77 93 77 169 0 69 -15 115 -51 152 -48 50 -70 53 -400 54 -168 1
-311 -1 -317 -3z"/>
</g>
</svg>
