<svg width="97" height="97" viewBox="0 0 97 97" fill="none" xmlns="http://www.w3.org/2000/svg">
<g opacity="0.5">
<path d="M95.28 89.483L84.58 95.703C84.0343 95.9789 83.4314 96.1227 82.82 96.1227C82.2085 96.1227 81.6057 95.9789 81.0601 95.703L70.2901 89.493C70.0763 89.4206 69.8903 89.2833 69.7583 89.1002C69.6263 88.917 69.5548 88.6973 69.5537 88.4716C69.5526 88.2458 69.622 88.0254 69.7522 87.841C69.8824 87.6566 70.067 87.5175 70.28 87.443L73.69 85.463L80.97 89.663C81.5451 89.9539 82.1805 90.1054 82.825 90.1054C83.4694 90.1054 84.105 89.9539 84.6801 89.663L91.87 85.483L95.26 87.443C95.474 87.5131 95.6605 87.6486 95.7935 87.8303C95.9265 88.0119 95.9991 88.2307 96.0014 88.4558C96.0036 88.6809 95.9352 88.9011 95.8058 89.0854C95.6764 89.2696 95.4926 89.4086 95.28 89.483V89.483Z" fill="#E3E7F0"/>
</g>
<g opacity="0.5">
<path d="M66.58 78.773L36.23 96.303C35.9079 96.4896 35.5423 96.588 35.17 96.588C34.7977 96.588 34.4321 96.4896 34.11 96.303L30.58 94.243C30.4198 94.1495 30.287 94.0154 30.195 93.8543C30.1031 93.6932 30.0552 93.5107 30.0562 93.3251C30.0572 93.1396 30.107 92.9576 30.2008 92.7975C30.2945 92.6374 30.4288 92.5048 30.59 92.413L31.06 92.143L34.05 93.883C33.7411 93.6623 33.496 93.3639 33.3397 93.0179C33.1834 92.6719 33.1214 92.2907 33.16 91.913V90.933L46.02 83.503L60.94 74.893C61.2713 74.7014 61.6473 74.6005 62.03 74.6005C62.4128 74.6005 62.7887 74.7014 63.12 74.893L66.58 76.883C66.7464 76.9783 66.8848 77.1159 66.981 77.2819C67.0772 77.4478 67.1278 77.6362 67.1278 77.828C67.1278 78.0198 67.0772 78.2082 66.981 78.3741C66.8848 78.5401 66.7464 78.6777 66.58 78.773V78.773Z" fill="#E3E7F0"/>
</g>
<path d="M60.18 4.27304C59.8308 4.10889 59.4435 4.04264 59.0595 4.08139C58.6756 4.12013 58.3093 4.26239 57.9999 4.49301L30.9699 20.093C30.0836 20.6673 29.3461 21.4433 28.8177 22.3576C28.2893 23.2719 27.985 24.2985 27.9299 25.3531L32.9799 28.2931C33.0316 27.2388 33.3333 26.212 33.8602 25.2974C34.387 24.3828 35.1239 23.6066 36.0099 23.033L63.06 7.41305C63.3703 7.18808 63.7349 7.04994 64.1164 7.01303C64.4979 6.97611 64.8823 7.04172 65.2299 7.20303L60.18 4.27304ZM56.6899 9.51303C56.2935 9.71514 55.8549 9.82052 55.41 9.82052C54.965 9.82052 54.5264 9.71514 54.1299 9.51303C53.9745 9.46063 53.8392 9.36102 53.7431 9.22812C53.647 9.09521 53.5948 8.9356 53.5937 8.77157C53.5926 8.60754 53.6427 8.44726 53.737 8.31308C53.8313 8.17889 53.9652 8.07751 54.1199 8.02304C54.5181 7.82084 54.9584 7.71542 55.405 7.71542C55.8515 7.71542 56.2917 7.82084 56.6899 8.02304C56.845 8.07648 56.9795 8.17697 57.0748 8.31051C57.17 8.44406 57.2213 8.60401 57.2213 8.76803C57.2213 8.93206 57.17 9.092 57.0748 9.22555C56.9795 9.3591 56.845 9.45958 56.6899 9.51303V9.51303Z" fill="white"/>
<path d="M28.0399 75.763L28.0999 88.993C28.0622 89.3713 28.1269 89.7527 28.2869 90.0975C28.447 90.4423 28.6967 90.7377 29.0099 90.953L31.0599 92.143L34.0499 93.883C33.741 93.6624 33.496 93.3639 33.3397 93.0179C33.1834 92.6719 33.1213 92.2907 33.1599 91.9131V90.933L32.9799 28.2931C33.0316 27.2388 33.3333 26.212 33.8602 25.2974C34.387 24.3828 35.1239 23.6066 36.0099 23.033L63.06 7.41305C63.3703 7.18808 63.7349 7.04994 64.1164 7.01303C64.4979 6.97611 64.8823 7.04172 65.2299 7.20303L60.18 4.27304C59.8308 4.10889 59.4435 4.04264 59.0595 4.08139C58.6756 4.12013 58.3093 4.26239 57.9999 4.49301L30.9699 20.093C30.0836 20.6673 29.3461 21.4433 28.8177 22.3576C28.2893 23.2719 27.985 24.2985 27.9299 25.3531L27.9699 49.683" stroke="white" stroke-width="0.5" stroke-linecap="round" stroke-linejoin="round"/>
<path d="M28.0319 72.876L27.9749 52.707" stroke="white" stroke-width="0.5" stroke-linecap="round" stroke-linejoin="round"/>
<path d="M66.23 36.9829L66.22 33.883L66.12 9.15299C66.11 7.22299 64.73 6.443 63.05 7.413L36.01 23.023C35.1266 23.5993 34.3916 24.3761 33.8651 25.2901C33.3386 26.2042 33.0353 27.2296 32.98 28.283L33.16 91.9229C33.16 93.8529 34.53 94.6429 36.21 93.6729L63.25 78.063C64.1357 77.4849 64.8732 76.7068 65.403 75.7914C65.9327 74.876 66.2401 73.849 66.3 72.793L66.23 36.9829ZM35.4 54.1129L35.34 33.683C35.3944 33.0425 35.5892 32.4219 35.9107 31.8654C36.2322 31.3088 36.6724 30.83 37.2 30.463L62.04 16.123C62.2179 16.0201 62.4196 15.9659 62.6251 15.9655C62.8306 15.9652 63.0326 16.0189 63.2108 16.1211C63.389 16.2234 63.5374 16.3707 63.6407 16.5483C63.7441 16.7259 63.7991 16.9275 63.8 17.133L63.9301 66.123C63.8727 66.7665 63.6756 67.3898 63.3527 67.9494C63.0297 68.509 62.5886 68.9914 62.0601 69.3629L37.23 83.693C37.052 83.7952 36.8503 83.8489 36.6451 83.849C36.4398 83.849 36.2381 83.7952 36.0601 83.6931C35.8821 83.5909 35.734 83.4439 35.6304 83.2667C35.5269 83.0895 35.4715 82.8882 35.47 82.683L35.41 58.523" fill="#E3E7F0"/>
<path d="M35.4 54.1129L35.34 33.683C35.3944 33.0425 35.5892 32.4219 35.9107 31.8654C36.2322 31.3088 36.6724 30.83 37.2 30.463L62.04 16.123C62.2179 16.0201 62.4196 15.9659 62.6251 15.9655C62.8306 15.9652 63.0326 16.0189 63.2108 16.1211C63.389 16.2234 63.5374 16.3707 63.6407 16.5483C63.7441 16.7259 63.7991 16.9275 63.8 17.133L63.9301 66.123C63.8727 66.7665 63.6756 67.3898 63.3527 67.9494C63.0297 68.509 62.5886 68.9914 62.0601 69.3629L37.23 83.693C37.052 83.7952 36.8503 83.8489 36.6451 83.849C36.4398 83.849 36.2381 83.7952 36.0601 83.6931C35.8821 83.5909 35.734 83.4439 35.6304 83.2667C35.5269 83.0895 35.4715 82.8882 35.47 82.683L35.41 58.523M66.23 36.9829L66.22 33.883L66.12 9.15299C66.11 7.22299 64.73 6.443 63.05 7.413L36.01 23.023C35.1266 23.5993 34.3916 24.3761 33.8651 25.2901C33.3386 26.2042 33.0353 27.2296 32.98 28.283L33.16 91.9229C33.16 93.8529 34.53 94.6429 36.21 93.6729L63.25 78.063C64.1357 77.4849 64.8732 76.7068 65.403 75.7914C65.9327 74.876 66.2401 73.849 66.3 72.793L66.23 36.9829Z" stroke="white" stroke-width="0.5" stroke-linecap="round" stroke-linejoin="round"/>
<path d="M35.4 54.113L35.34 33.683C35.3943 33.0426 35.5892 32.422 35.9106 31.8654C36.2321 31.3089 36.6723 30.8301 37.2 30.463L62.04 16.123C62.2179 16.0202 62.4196 15.9659 62.6251 15.9656C62.8305 15.9653 63.0325 16.0189 63.2108 16.1212C63.389 16.2234 63.5373 16.3708 63.6407 16.5483C63.7441 16.7259 63.799 16.9275 63.8 17.133L63.93 66.123C63.8727 66.7665 63.6756 67.3899 63.3526 67.9495C63.0296 68.5091 62.5886 68.9914 62.06 69.363L37.2299 83.693C37.0519 83.7952 36.8503 83.849 36.645 83.849C36.4398 83.849 36.2381 83.7953 36.0601 83.6931C35.882 83.591 35.7339 83.4439 35.6304 83.2667C35.5268 83.0895 35.4715 82.8882 35.4699 82.683L35.4099 58.523" stroke="white" stroke-width="0.5" stroke-linecap="round" stroke-linejoin="round"/>
<path d="M30.4199 34.702L30.4109 32.019" stroke="white" stroke-width="0.5" stroke-linecap="round" stroke-linejoin="round"/>
<path d="M30.4319 42.465L30.4229 37.272" stroke="white" stroke-width="0.5" stroke-linecap="round" stroke-linejoin="round"/>
<path d="M21.995 61.295C22.7605 61.295 23.381 60.6745 23.381 59.909C23.381 59.1435 22.7605 58.523 21.995 58.523C21.2295 58.523 20.609 59.1435 20.609 59.909C20.609 60.6745 21.2295 61.295 21.995 61.295Z" stroke="#B0B8CF" stroke-width="0.5" stroke-linecap="round" stroke-linejoin="round"/>
<path d="M51.222 17.671C51.534 17.491 51.786 17.634 51.787 17.989C51.777 18.1842 51.7209 18.3743 51.6232 18.5436C51.5255 18.713 51.389 18.8567 51.225 18.963L45.3879 22.333C45.0749 22.513 44.823 22.369 44.822 22.01C44.8329 21.8157 44.8894 21.6266 44.9871 21.4583C45.0847 21.2899 45.2207 21.1469 45.384 21.041L51.222 17.671Z" fill="white"/>
<path d="M53.092 16.591C53.401 16.413 53.6531 16.556 53.6541 16.911C53.6444 17.1054 53.5887 17.2948 53.4917 17.4636C53.3947 17.6323 53.2591 17.7758 53.0959 17.882C52.7839 18.063 52.531 17.919 52.53 17.56C52.5406 17.3656 52.597 17.1765 52.6947 17.008C52.7924 16.8396 52.9286 16.6967 53.092 16.591Z" fill="white"/>
<path d="M48.859 83.408C48.349 83.408 48.032 82.987 48.03 82.308C48.0609 81.7282 48.2282 81.1639 48.5184 80.661C48.8086 80.1581 49.2134 79.7309 49.7 79.414C49.9154 79.2803 50.1617 79.2042 50.415 79.193C50.924 79.193 51.242 79.614 51.244 80.293C51.2129 80.873 51.0452 81.4374 50.7546 81.9403C50.4641 82.4432 50.0589 82.8704 49.572 83.187C49.3573 83.3208 49.1117 83.3969 48.859 83.408V83.408Z" fill="white"/>
<path d="M33.983 12.486L31.269 9.77301" stroke="white" stroke-width="0.5" stroke-linecap="round" stroke-linejoin="round"/>
<path d="M31.269 12.486L33.982 9.77197" stroke="white" stroke-width="0.5" stroke-linecap="round" stroke-linejoin="round"/>
<path d="M13.02 29.763L13.06 48.713L27.97 40.093" stroke="white" stroke-width="0.5" stroke-linecap="round" stroke-linejoin="round" stroke-dasharray="1.5 1.4"/>
<path d="M70.266 57.254C71.0458 57.254 71.678 56.6218 71.678 55.842C71.678 55.0622 71.0458 54.43 70.266 54.43C69.4862 54.43 68.854 55.0622 68.854 55.842C68.854 56.6218 69.4862 57.254 70.266 57.254Z" fill="#FF342B"/>
<path d="M54.915 48.024L60.415 44.848C60.756 44.648 61.0349 44.811 61.0359 45.208L61.0569 53.595C61.046 53.8093 60.9844 54.018 60.8771 54.2038C60.7699 54.3896 60.62 54.5473 60.4399 54.664L38.864 67.121C38.518 67.321 38.2379 67.167 38.2369 66.77L38.2159 58.383C38.2273 58.1669 38.2896 57.9565 38.3979 57.7692C38.5062 57.5818 38.6573 57.4227 38.8389 57.305L52.2629 49.555" stroke="white" stroke-width="0.5" stroke-linecap="round" stroke-linejoin="round"/>
<path d="M43.2858 56.936C43.6588 56.72 43.9638 56.901 43.9648 57.323C43.953 57.5573 43.8857 57.7854 43.7684 57.9885C43.651 58.1916 43.487 58.3639 43.2899 58.491C42.9109 58.71 42.6118 58.54 42.6108 58.104C42.6234 57.8699 42.691 57.6421 42.8083 57.4391C42.9257 57.2361 43.0893 57.0637 43.2858 56.936Z" fill="#2E58FF"/>
<path d="M46.2289 54.945C46.2608 54.9197 46.301 54.9069 46.3417 54.9091C46.3824 54.9113 46.4208 54.9283 46.4498 54.957L49.5889 58.49C49.7119 58.624 49.5839 58.973 49.3729 59.09L39.9999 64.522C39.7879 64.644 39.6589 64.443 39.7809 64.168L41.7929 59.539C41.8371 59.4314 41.9137 59.3403 42.0119 59.278C42.0433 59.2525 42.0828 59.2392 42.1232 59.2405C42.1636 59.2418 42.2022 59.2575 42.2319 59.285L43.3629 60.549C43.3916 60.5773 43.4295 60.594 43.4697 60.596C43.5099 60.598 43.5496 60.5852 43.5809 60.56C43.6802 60.4963 43.7576 60.4039 43.8029 60.295L46.0139 55.211C46.0562 55.1021 46.1313 55.0092 46.2289 54.945V54.945Z" fill="#FF342B"/>
<path d="M56.1309 53.709L50.8639 56.75" stroke="white" stroke-width="0.5" stroke-linecap="round" stroke-linejoin="round"/>
<path d="M59.6239 51.692L58.1119 52.565" stroke="white" stroke-width="0.5" stroke-linecap="round" stroke-linejoin="round"/>
<path d="M59.6249 48.713L49.3779 54.629" stroke="white" stroke-width="0.5" stroke-linecap="round" stroke-linejoin="round"/>
<path d="M3.82294 23.861L1.21191 24.429C1.02591 24.475 0.911945 24.351 0.905945 24.129L0.898926 21.529C0.911212 21.2826 1.01877 21.0506 1.19891 20.882L3.80493 18.438C4.03553 17.2695 4.37397 16.1249 4.81592 15.019L3.54095 12.966C3.50064 12.8628 3.4863 12.7512 3.49921 12.6412C3.51211 12.5312 3.55183 12.4261 3.61493 12.335L5.21497 9.57396C5.28821 9.44164 5.39426 9.3304 5.52295 9.25096C5.58319 9.2136 5.65213 9.1926 5.72296 9.18998L8.15393 9.244M10.6089 6.653L11.4219 3.17698C11.4791 2.9366 11.6252 2.72685 11.8309 2.59001L14.0909 1.28996C14.2849 1.17796 14.4529 1.23299 14.5109 1.39799L15.3319 3.93101C16.1299 3.68851 16.9675 3.6036 17.7979 3.68101L20.2209 0.823956C20.278 0.757378 20.3455 0.700653 20.421 0.655987C20.465 0.623897 20.5167 0.603846 20.5709 0.597882C20.6251 0.591918 20.6799 0.600253 20.7299 0.621991L22.3369 1.533C22.4699 1.619 22.502 1.83297 22.418 2.07597L21.155 5.59398C21.6413 6.26631 21.9906 7.0278 22.1829 7.835L24.7939 7.26701C24.9749 7.23401 25.0939 7.345 25.0999 7.567L25.1069 10.167C25.0967 10.4153 24.9889 10.6496 24.8069 10.819L22.2009 13.263C21.9707 14.4332 21.6323 15.5794 21.1899 16.687L22.4689 18.742C22.5074 18.8437 22.5204 18.9533 22.5068 19.0611C22.4932 19.169 22.4534 19.272 22.3909 19.361L20.791 22.127C20.7214 22.2589 20.6178 22.3697 20.491 22.448C20.4287 22.4871 20.3565 22.5073 20.283 22.506L17.8599 22.447C17.1207 23.3893 16.2945 24.2597 15.392 25.047L14.5919 28.513C14.5339 28.7567 14.3842 28.9687 14.174 29.105L11.9139 30.405C11.7239 30.515 11.5559 30.47 11.5029 30.292L10.6729 27.769C9.87371 28.0123 9.03424 28.0949 8.20294 28.012L5.78796 30.869C5.72992 30.9417 5.6595 31.0037 5.57996 31.052C5.53712 31.0835 5.48634 31.1024 5.43335 31.1066C5.38036 31.1108 5.32726 31.1002 5.27997 31.076L3.67194 30.16C3.53994 30.084 3.50795 29.86 3.59595 29.63L4.85394 26.109" stroke="white" stroke-width="0.5" stroke-linecap="round" stroke-linejoin="round"/>
<path d="M14.5 7.85601C17.28 7.03101 19.353 8.72899 19.363 12.172C19.2158 15.2866 18.0245 18.261 15.981 20.616" stroke="white" stroke-width="0.5" stroke-linecap="round" stroke-linejoin="round"/>
<path d="M13.0189 23.163C9.49692 25.199 6.63696 23.563 6.63696 19.516C6.74993 17.4486 7.31597 15.4313 8.2951 13.607C9.27424 11.7827 10.6425 10.1958 12.3029 8.95898" stroke="white" stroke-width="0.5" stroke-linecap="round" stroke-linejoin="round"/>
<path d="M12.2279 18.159C12.2453 18.1942 12.2548 18.2327 12.2558 18.272C12.2546 18.3594 12.2304 18.4449 12.1858 18.52C12.1439 18.599 12.0809 18.6647 12.0039 18.71C11.9616 18.7384 11.9104 18.7505 11.8598 18.744C11.8382 18.7409 11.8178 18.7323 11.8003 18.7192C11.7829 18.7061 11.769 18.6889 11.7599 18.669L11.3908 17.869L9.47483 18.975L9.11088 20.196C9.08859 20.2646 9.05474 20.3288 9.01084 20.386C8.97218 20.4386 8.9236 20.4831 8.86784 20.5171C8.84214 20.5376 8.81126 20.5506 8.7786 20.5546C8.74595 20.5587 8.71279 20.5536 8.68284 20.54C8.65745 20.5206 8.63763 20.4949 8.62535 20.4654C8.61306 20.4359 8.60873 20.4037 8.61283 20.372C8.61555 20.3227 8.62466 20.274 8.63987 20.227L10.0669 15.497C10.0957 15.4031 10.1385 15.3141 10.1938 15.233C10.2443 15.1545 10.3129 15.0894 10.3938 15.0431L10.4508 15.01C10.4794 14.9895 10.512 14.9752 10.5465 14.9682C10.581 14.9611 10.6165 14.9614 10.6509 14.969C10.6791 14.979 10.7049 14.9947 10.7268 15.0152C10.7486 15.0357 10.7661 15.0605 10.7779 15.088L12.2279 18.159ZM9.67088 18.325L11.1919 17.447L10.4259 15.779L9.67088 18.325Z" fill="#2E58FF"/>
<path d="M15.9728 12.6C16.0774 12.7876 16.1282 13.0004 16.1198 13.2151C16.1178 13.4824 16.0694 13.7472 15.9768 13.998C15.8654 14.2958 15.7015 14.5711 15.4928 14.811C15.2454 15.0971 14.9496 15.3375 14.6188 15.521L13.5938 16.114V17.5C13.5925 17.5895 13.5661 17.6768 13.5178 17.752C13.4746 17.8304 13.4115 17.8959 13.3348 17.942C13.3094 17.9617 13.2791 17.9739 13.2471 17.9774C13.2152 17.981 13.1829 17.9756 13.1538 17.962C13.1282 17.9431 13.1081 17.9179 13.0955 17.8888C13.0828 17.8596 13.0781 17.8276 13.0818 17.796L13.0708 13.833C13.072 13.744 13.0965 13.6567 13.1418 13.58C13.1835 13.5007 13.2456 13.4341 13.3218 13.387L14.6068 12.645C14.8663 12.4684 15.1685 12.3647 15.4818 12.345C15.5789 12.3403 15.6755 12.3615 15.7617 12.4063C15.848 12.4511 15.9208 12.5179 15.9728 12.6V12.6ZM15.3728 14.274C15.5198 14.0463 15.6006 13.7821 15.6058 13.511C15.6192 13.4149 15.6039 13.317 15.5619 13.2295C15.5199 13.142 15.4531 13.0688 15.3698 13.019C15.2138 12.9403 14.9438 13.0117 14.5598 13.233L13.5848 13.796L13.5898 15.557L14.5648 14.994C14.8905 14.826 15.1685 14.5783 15.3728 14.274" fill="#2E58FF"/>
<path d="M17.1138 11.165C17.1402 11.1455 17.1713 11.1336 17.2039 11.1304C17.2364 11.1273 17.2692 11.133 17.2988 11.147C17.3254 11.1652 17.3465 11.1905 17.3597 11.22C17.373 11.2494 17.3779 11.282 17.3738 11.314L17.3858 15.314C17.3845 15.403 17.3585 15.4899 17.3108 15.565C17.2675 15.6439 17.2041 15.7098 17.1268 15.756C17.1027 15.7774 17.0724 15.7907 17.0402 15.7939C17.0081 15.7972 16.9757 15.7903 16.9478 15.7741C16.9198 15.758 16.8976 15.7334 16.8843 15.704C16.8711 15.6745 16.8674 15.6416 16.8738 15.61L16.8618 11.61C16.866 11.5214 16.891 11.435 16.9348 11.3579C16.9786 11.2808 17.0399 11.215 17.1138 11.166V11.165Z" fill="#2E58FF"/>
<path d="M47.43 41.553L49.63 43.763L49.64 43.753L47.43 41.553ZM58.3599 32.063C58.3399 26.523 54.4199 24.293 49.6099 27.073C44.7999 29.853 40.8999 36.593 40.9099 42.133C40.9199 45.223 42.1499 47.273 44.0699 48.013V46.413C44.1177 45.5341 44.3716 44.6787 44.8111 43.9161C45.2506 43.1534 45.8634 42.505 46.5999 42.023L47.43 41.553L48.15 39.553C47.2 39.583 46.53 38.843 46.53 37.543V36.803C46.49 36.773 45.74 36.183 46.06 34.173C46.274 33.475 46.6235 32.826 47.0885 32.2632C47.5535 31.7004 48.1249 31.2348 48.77 30.893C49.1676 30.6646 49.5904 30.4834 50.03 30.353C50.0754 30.1957 50.1321 30.042 50.1999 29.893C50.4135 29.3538 50.7914 28.8955 51.28 28.583C51.4914 28.432 51.7446 28.3509 52.0044 28.3508C52.2641 28.3508 52.5175 28.4319 52.729 28.5827C52.9404 28.7336 53.0995 28.9468 53.1839 29.1924C53.2684 29.4381 53.2739 29.704 53.1999 29.953C53.0124 31.178 52.6801 32.3764 52.2099 33.523V34.263C52.1597 35.4491 51.7596 36.5938 51.06 37.553L51.8199 39.013V39.023L52.64 38.533C54.05 37.733 55.1899 38.373 55.1999 39.993V41.623C57.1345 38.7985 58.2301 35.484 58.3599 32.063V32.063Z" fill="#E3E7F0"/>
<path d="M58.3589 32.064C58.3439 26.526 54.4229 24.297 49.6079 27.077C44.7929 29.857 40.8989 36.598 40.9139 42.136C40.9289 47.674 44.8459 49.905 49.6649 47.123C53.8649 44.699 57.3648 39.259 58.1788 34.239" stroke="white" stroke-width="0.5" stroke-linecap="round" stroke-linejoin="round"/>
<path d="M51.8198 39.013V39.023L49.6399 43.753L47.4299 41.553L48.1499 39.553C48.5863 39.5293 49.0095 39.3951 49.3799 39.163C50.0492 38.7535 50.6223 38.2042 51.0599 37.553L51.8198 39.013Z" stroke="white" stroke-width="0.5" stroke-linecap="round" stroke-linejoin="round"/>
<path d="M49.6399 43.753L49.6299 43.763L47.4299 41.553L49.6399 43.753Z" fill="white" stroke="white" stroke-width="0.5" stroke-linecap="round" stroke-linejoin="round"/>
<path d="M55.1998 39.993V41.633C53.8 43.8614 51.9084 45.7394 49.6699 47.123C48.9917 47.5223 48.266 47.8347 47.5099 48.053C47.2299 48.133 46.9499 48.193 46.6799 48.243C46.1506 48.3292 45.6112 48.336 45.0798 48.263C44.9891 48.2553 44.899 48.2419 44.8099 48.223C44.5574 48.1756 44.3096 48.1053 44.0698 48.013V46.413C44.1176 45.5341 44.3715 44.6787 44.811 43.9161C45.2505 43.1534 45.8633 42.505 46.5999 42.023L47.4299 41.553L49.6299 43.763L49.6399 43.753L51.8198 39.023L52.6399 38.533C54.0499 37.733 55.1898 38.373 55.1998 39.993Z" stroke="white" stroke-width="0.5" stroke-linecap="round" stroke-linejoin="round"/>
<path d="M49.6399 43.753L49.6299 43.763L47.4299 41.553L49.6399 43.753Z" fill="white" stroke="white" stroke-width="0.5" stroke-linecap="round" stroke-linejoin="round"/>
<path d="M52.2098 33.523V34.263C52.1596 35.4491 51.7595 36.5938 51.0599 37.553C50.6223 38.2043 50.0492 38.7535 49.3799 39.163C49.0095 39.3951 48.5863 39.5293 48.1499 39.553C47.1999 39.583 46.5299 38.843 46.5299 37.543V36.803L47.1799 35.023C47.1906 34.9951 47.2039 34.9683 47.2198 34.943C47.2483 34.8784 47.2853 34.8178 47.3298 34.763C47.3546 34.7282 47.3851 34.6978 47.4199 34.673C47.4413 34.6468 47.4687 34.6262 47.4999 34.613L47.5299 34.593L51.0399 32.563C51.0582 32.5519 51.0786 32.5451 51.0999 32.543C51.1083 32.5367 51.1182 32.5325 51.1287 32.5307C51.1391 32.529 51.1498 32.5298 51.1599 32.533C51.188 32.5236 51.2177 32.5204 51.2471 32.5239C51.2765 32.5273 51.3047 32.5373 51.3298 32.553C51.3398 32.563 51.3399 32.573 51.3499 32.573L52.2098 33.523Z" stroke="white" stroke-width="0.5" stroke-linecap="round" stroke-linejoin="round"/>
<path d="M53.1998 29.953C53.0123 31.178 52.68 32.3764 52.2099 33.523L51.3499 32.573C51.3399 32.573 51.3398 32.563 51.3298 32.553C51.3048 32.5373 51.2765 32.5273 51.2471 32.5239C51.2177 32.5204 51.188 32.5236 51.1599 32.533C51.1499 32.5298 51.1391 32.529 51.1287 32.5307C51.1182 32.5324 51.1083 32.5367 51.0999 32.543C51.0786 32.5451 51.0582 32.5519 51.0399 32.563L47.5299 34.593L47.4999 34.613C47.4688 34.6262 47.4414 34.6468 47.4199 34.673C47.3851 34.6977 47.3546 34.7282 47.3298 34.763C47.2853 34.8178 47.2483 34.8783 47.2199 34.943C47.2039 34.9683 47.1906 34.9951 47.1799 35.023L46.5299 36.803C46.4899 36.773 45.7399 36.183 46.0599 34.173C46.2739 33.475 46.6234 32.826 47.0884 32.2632C47.5534 31.7004 48.1248 31.2348 48.7699 30.893C49.1675 30.6647 49.5904 30.4835 50.0299 30.353C50.0753 30.1958 50.1321 30.042 50.1998 29.893C50.4134 29.3538 50.7914 28.8955 51.2799 28.583C51.4913 28.4321 51.7445 28.3509 52.0043 28.3508C52.2641 28.3508 52.5174 28.4319 52.7289 28.5828C52.9403 28.7336 53.0994 28.9468 53.1839 29.1924C53.2683 29.4381 53.2738 29.704 53.1998 29.953Z" stroke="white" stroke-width="0.5" stroke-linecap="round" stroke-linejoin="round"/>
<path d="M38.2219 74.4L38.2159 72.441C38.233 72.111 38.3282 71.7897 38.4935 71.5036C38.6588 71.2175 38.8896 70.9746 39.1669 70.795L43.2889 68.415C43.8209 68.107 44.2439 68.348 44.2449 68.96L44.259 73.697C44.2418 74.0269 44.1467 74.348 43.9816 74.6341C43.8165 74.9202 43.586 75.1632 43.3089 75.343L39.1859 77.723C38.6619 78.023 38.2309 77.78 38.2299 77.178V76.57" stroke="white" stroke-width="0.5" stroke-linecap="round" stroke-linejoin="round"/>
<path d="M51.688 63.57C52.221 63.262 52.643 63.503 52.645 64.115L52.658 68.851C52.6411 69.1809 52.5463 69.5022 52.3811 69.7883C52.216 70.0744 51.9853 70.3173 51.708 70.497L47.585 72.877C47.062 73.177 46.631 72.9339 46.629 72.3319L46.616 67.5949C46.6328 67.2651 46.7278 66.944 46.8929 66.6581C47.0581 66.3721 47.2888 66.1294 47.566 65.95L51.688 63.57Z" fill="#2E58FF"/>
<path d="M50.5699 64.215L51.688 63.57C52.221 63.262 52.643 63.503 52.645 64.115L52.658 68.851C52.6411 69.1809 52.5463 69.5022 52.3811 69.7883C52.216 70.0744 51.9853 70.3173 51.708 70.497L47.585 72.877C47.062 73.177 46.631 72.9339 46.629 72.3319L46.616 67.5949C46.6328 67.2651 46.7278 66.944 46.8929 66.6581C47.0581 66.3721 47.2888 66.1294 47.566 65.95L48.254 65.55" stroke="white" stroke-width="0.5" stroke-linecap="round" stroke-linejoin="round"/>
<path d="M56.8668 67.519L55.9849 68.028C55.4609 68.328 55.0298 68.085 55.0278 67.483L55.0149 62.746C55.0317 62.416 55.1266 62.0948 55.2917 61.8087C55.4569 61.5225 55.6876 61.2796 55.9648 61.1L60.0869 58.72C60.6199 58.413 61.0418 58.653 61.0438 59.265L61.0569 64.002C61.0401 64.332 60.9453 64.6532 60.7802 64.9394C60.615 65.2256 60.3843 65.4684 60.1069 65.648L59.1069 66.225" fill="#E3E7F0"/>
<path d="M56.8668 67.519L55.9849 68.028C55.4609 68.328 55.0298 68.085 55.0278 67.483L55.0149 62.746C55.0317 62.416 55.1266 62.0948 55.2917 61.8087C55.4569 61.5225 55.6876 61.2796 55.9648 61.1L60.0869 58.72C60.6199 58.413 61.0418 58.653 61.0438 59.265L61.0569 64.002C61.0401 64.332 60.9453 64.6532 60.7802 64.9394C60.615 65.2256 60.3843 65.4684 60.1069 65.648L59.1069 66.225" stroke="white" stroke-width="0.5" stroke-linecap="round" stroke-linejoin="round"/>
<path d="M78.52 88.243L75.52 89.973L73.33 91.243L66.63 95.113L49.8 86.063" stroke="white" stroke-width="0.5" stroke-linecap="round" stroke-linejoin="round" stroke-dasharray="1.5 1.4"/>
<path d="M96.6998 82.05L96.6869 85.507C96.6671 85.7382 96.5861 85.9599 96.4521 86.1494C96.3182 86.3388 96.1362 86.4892 95.9249 86.585L84.6738 93.117C84.0992 93.4151 83.4612 93.5707 82.8138 93.5707C82.1664 93.5707 81.5285 93.4151 80.9539 93.117L69.6249 86.585C69.4112 86.4872 69.227 86.3349 69.0908 86.1434C68.9546 85.9519 68.8712 85.7279 68.8489 85.494L68.8619 82.037C68.8814 82.2718 68.9637 82.4969 69.1002 82.6889C69.2368 82.8809 69.4224 83.0326 69.6378 83.128L80.9669 89.66C81.5412 89.9518 82.1763 90.1039 82.8204 90.1039C83.4646 90.1039 84.0996 89.9518 84.6738 89.66L95.9379 83.128C96.1477 83.0302 96.3284 82.8793 96.462 82.6902C96.5957 82.5011 96.6776 82.2805 96.6998 82.05V82.05Z" fill="#C9CEE2"/>
<path d="M80.9559 93.117L69.6268 86.585C69.4132 86.4872 69.2291 86.3349 69.0929 86.1434C68.9567 85.9519 68.8732 85.7279 68.8508 85.494L68.8639 82.037C68.8834 82.2718 68.9658 82.4969 69.1023 82.6889C69.2388 82.8809 69.4245 83.0326 69.6399 83.128L80.9689 89.66L80.9559 93.117Z" fill="white"/>
<path d="M95.93 83.123L91.8699 85.483L84.68 89.663C84.1049 89.9539 83.4694 90.1054 82.8249 90.1054C82.1804 90.1054 81.545 89.9539 80.9699 89.663L73.6899 85.463L69.6399 83.123C68.5999 82.523 68.5999 81.563 69.6199 80.973L80.8799 74.433C81.4543 74.1397 82.09 73.9868 82.7349 73.9868C83.3798 73.9868 84.0155 74.1397 84.5899 74.433L95.92 80.973C96.1446 81.0486 96.3399 81.1925 96.4787 81.3846C96.6174 81.5767 96.6926 81.8074 96.6937 82.0444C96.6948 82.2814 96.6218 82.5128 96.4848 82.7062C96.3478 82.8996 96.1539 83.0453 95.93 83.123V83.123Z" stroke="white" stroke-width="0.5" stroke-linecap="round" stroke-linejoin="round"/>
<path d="M92.7119 81.233C92.882 81.2898 93.0299 81.3984 93.1351 81.5436C93.2404 81.6887 93.2975 81.8632 93.2986 82.0424C93.2997 82.2217 93.2447 82.3968 93.1412 82.5433C93.0378 82.6897 92.8913 82.8001 92.7219 82.859L84.2149 87.803C83.7803 88.0248 83.2993 88.1405 82.8114 88.1405C82.3235 88.1405 81.8424 88.0248 81.4079 87.803L72.8458 82.859C72.6754 82.8026 72.5269 82.694 72.4214 82.5488C72.3159 82.4035 72.2586 82.2288 72.2576 82.0493C72.2566 81.8697 72.312 81.6943 72.4159 81.5479C72.5198 81.4015 72.6671 81.2913 72.8369 81.233L81.3429 76.29C81.7778 76.0692 82.2586 75.9541 82.7464 75.9541C83.2341 75.9541 83.715 76.0692 84.1499 76.29L92.7119 81.233Z" fill="#E3E7F0"/>
<path d="M91.6649 89.059L84.6759 93.117C84.1012 93.4151 83.4633 93.5707 82.8159 93.5707C82.1685 93.5707 81.5306 93.4151 80.9559 93.117L69.6268 86.585C69.4132 86.4872 69.2291 86.3349 69.0929 86.1434C68.9567 85.9519 68.8732 85.7279 68.8508 85.494L68.8639 82.037C68.8834 82.2718 68.9658 82.4969 69.1023 82.6889C69.2388 82.8809 69.4245 83.0326 69.6399 83.128L80.9689 89.66C81.5431 89.9518 82.1782 90.1039 82.8224 90.1039C83.4666 90.1039 84.1016 89.9518 84.6759 89.66L95.9398 83.128C96.1497 83.0302 96.3305 82.8793 96.4641 82.6902C96.5978 82.5011 96.6797 82.2805 96.7019 82.05L96.6888 85.507C96.669 85.7382 96.588 85.9599 96.4541 86.1494C96.3202 86.3388 96.1382 86.4892 95.9269 86.585L93.8269 87.804" stroke="white" stroke-width="0.5" stroke-linecap="round" stroke-linejoin="round"/>
<path d="M85.71 82.285L85.787 82.344L86.962 84.117L86.988 84.264L86.874 84.389L86.83 84.415L86.62 84.478L86.365 84.463L83.3 83.788L83.192 83.747L83.109 83.625L83.198 83.5L83.3571 83.452L83.535 83.467L86.3 84.079L85.228 82.479L85.208 82.372L85.29 82.28L85.506 82.228L85.71 82.285Z" fill="white"/>
<path d="M85.964 81.02C86.028 81.057 86.064 81.098 86.054 81.146L85.965 81.271L85.865 81.308L80.356 82.875L80.184 82.893L80.006 82.841C79.942 82.805 79.906 82.764 79.906 82.712L80 82.591L80.1 82.55L85.6 80.987L85.7841 80.969L85.964 81.02Z" fill="white"/>
<path d="M82.3521 80.346L82.452 80.468L82.363 80.593L82.204 80.641L82.0129 80.626L79.254 80.01L80.319 81.61L80.351 81.717L80.269 81.809L80.053 81.861L79.8361 81.809L79.772 81.75L78.597 79.977L78.571 79.83L78.679 79.708L78.723 79.682L78.939 79.616L79.194 79.631L82.259 80.306L82.3521 80.346Z" fill="white"/>
</svg>
